<svg height="480pt" viewBox="0 -63 480 479" width="480pt" xmlns="http://www.w3.org/2000/svg" xmlns:xlink="http://www.w3.org/1999/xlink"><linearGradient id="a"><stop offset="0" stop-color="#47c0bb"/><stop offset="1" stop-color="#0063ae"/></linearGradient><linearGradient id="b" gradientUnits="userSpaceOnUse" x1="-16" x2="468.248" xlink:href="#a" y1="208.5" y2="208.5"/><linearGradient id="c" gradientUnits="userSpaceOnUse" x1="-16" x2="468.248" xlink:href="#a" y1="112.5" y2="112.5"/><linearGradient id="d" gradientUnits="userSpaceOnUse" x1="-16" x2="468.248" xlink:href="#a" y1="304.5" y2="304.5"/><linearGradient id="e" gradientUnits="userSpaceOnUse" x1="-16" x2="468.248" xlink:href="#a" y1="40.5" y2="40.5"/><path d="m440 64.5h-104c-1.730469 0-3.414062.5625-4.800781 1.601562l-107.199219 80.398438v-26c0-13.253906-10.746094-24-24-24h-32c-13.253906 0-24 10.746094-24 24v86l-66.664062 50h-37.335938c-22.082031.027344-39.9726562 17.917969-40 40v16c.0273438 22.082031 17.917969 39.972656 40 40h432c4.417969 0 8-3.582031 8-8v-240c-.027344-22.082031-17.917969-39.972656-40-40zm-280 56c0-4.417969 3.582031-8 8-8h32c4.417969 0 8 3.582031 8 8v38l-48 36zm304 216h-295.398438l242-176h29.398438c2.488281-.019531 4.972656-.269531 7.414062-.753906.800782-.140625 1.507813-.375 2.257813-.566406 1.609375-.394532 3.195313-.886719 4.742187-1.472657.800782-.320312 1.601563-.664062 2.402344-1.03125 1.429688-.671875 2.820313-1.425781 4.160156-2.265625.695313-.429687 1.398438-.839844 2.0625-1.308594.3125-.226562.671876-.394531.976563-.617187zm0-216c0 13.253906-10.746094 24-24 24h-32c-1.691406 0-3.335938.535156-4.703125 1.527344l-261.898437 190.472656h-101.398438c-13.253906 0-24-10.746094-24-24v-16c0-13.253906 10.746094-24 24-24h40c1.730469 0 3.414062-.5625 4.800781-1.601562l253.863281-190.398438h101.335938c13.253906 0 24 10.746094 24 24zm0 0" fill="url(#b)"/><path d="m400 104.5h-32c-1.730469 0-3.414062.5625-4.800781 1.601562l-253.863281 190.398438h-29.335938c-4.417969 0-8 3.582031-8 8s3.582031 8 8 8h32c1.730469 0 3.414062-.5625 4.800781-1.601562l253.863281-190.398438h29.335938c4.417969 0 8-3.582031 8-8s-3.582031-8-8-8zm0 0" fill="url(#b)"/><path d="m440 104.5h-8c-4.417969 0-8 3.582031-8 8s3.582031 8 8 8h8c4.417969 0 8-3.582031 8-8s-3.582031-8-8-8zm0 0" fill="url(#c)"/><path d="m48 296.5h-8c-4.417969 0-8 3.582031-8 8s3.582031 8 8 8h8c4.417969 0 8-3.582031 8-8s-3.582031-8-8-8zm0 0" fill="url(#d)"/><path d="m184 .5c-22.089844 0-40 17.910156-40 40s17.910156 40 40 40 40-17.910156 40-40c-.027344-22.082031-17.917969-39.972656-40-40zm0 64c-13.253906 0-24-10.746094-24-24s10.746094-24 24-24 24 10.746094 24 24-10.746094 24-24 24zm0 0" fill="url(#e)"/></svg>