<svg height="661pt" viewBox="-20 -29 661.33334 661" width="661pt" xmlns="http://www.w3.org/2000/svg"><path d="m615.550781 40.570312c2.777344-1.855468 4.449219-4.976562 4.449219-8.320312v-2.628906c.015625-11.066406-6.070312-21.25-15.824219-26.476563-9.761719-5.230469-21.601562-4.664062-30.816406 1.476563l-568.910156 379.308594c-2.777344 1.855468-4.449219 4.980468-4.449219 8.320312v2.628906c-.015625 11.070313 6.070312 21.25 15.824219 26.480469 9.761719 5.230469 21.601562 4.664063 30.816406-1.480469l13.359375-8.949218v71.320312h-50c-5.523438 0-10 4.476562-10 10v100c0 5.519531 4.476562 10 10 10h600c5.523438 0 10-4.480469 10-10v-400c0-5.523438-4.476562-10-10-10h-50v-104.648438zm-155.550781 141.679688c-5.523438 0-10 4.476562-10 10v90h-40v-104.648438l100-66.671874v71.320312zm-150 100c-5.523438 0-10 4.476562-10 10v90h-40v-104.648438l100-66.671874v71.320312zm-150 100c-5.523438 0-10 4.476562-10 10v90h-40v-104.648438l100-66.671874v71.320312zm70-84.648438 6.660156-4.4375 3.339844-2.234374v91.320312h-10zm150-100 4.070312-2.710937 5.929688-4v91.359375h-10zm-344.457031 205.648438c-3.050781 2.097656-7.027344 2.292969-10.265625.503906-2.480469-1.300781-4.296875-3.585937-5-6.296875l564.179687-376.15625c3.050781-2.097656 7.027344-2.292969 10.265625-.5 2.480469 1.296875 4.296875 3.582031 5 6.292969zm44.457031-5.648438 9.25-6.171874.75-.5v91.320312h-10zm520 184.648438h-580v-80h140c5.523438 0 10-4.480469 10-10v-90h140c5.523438 0 10-4.480469 10-10v-90h140c5.523438 0 10-4.476562 10-10v-90h130zm-60-400h-10v-84.648438l1.480469-1 8.519531-5.671874zm0 0"/><path d="m580 372.25c-5.523438 0-10 4.476562-10 10v40c0 5.519531 4.476562 10 10 10s10-4.480469 10-10v-40c0-5.523438-4.476562-10-10-10zm0 0"/><path d="m580 442.25c-5.523438 0-10 4.476562-10 10v100h-50c-5.523438 0-10 4.476562-10 10 0 5.519531 4.476562 10 10 10h60c5.523438 0 10-4.480469 10-10v-110c0-5.523438-4.476562-10-10-10zm0 0"/><path d="m540 222.25c0 5.523438 4.476562 10 10 10h20v30c0 5.523438 4.476562 10 10 10s10-4.476562 10-10v-40c0-5.523438-4.476562-10-10-10h-30c-5.523438 0-10 4.476562-10 10zm0 0"/><path d="m480 552.25h-150c-5.523438 0-10 4.476562-10 10 0 5.519531 4.476562 10 10 10h150c5.523438 0 10-4.480469 10-10 0-5.523438-4.476562-10-10-10zm0 0"/></svg>